<?xml version="1.0" encoding="utf-8"?>
<!-- Generator: Adobe Illustrator 24.0.0, SVG Export Plug-In . SVG Version: 6.00 Build 0)  -->
<svg version="1.1" id="Capa_1" xmlns="http://www.w3.org/2000/svg" xmlns:xlink="http://www.w3.org/1999/xlink" x="0px" y="0px"
	 viewBox="0 0 2000 2000" style="enable-background:new 0 0 2000 2000;" xml:space="preserve">
<style type="text/css">
	.st0{fill:url(#SVGID_1_);stroke:url(#SVGID_2_);stroke-miterlimit:10;}
	.st1{fill:url(#SVGID_3_);stroke:url(#SVGID_4_);stroke-miterlimit:10;}
	.st2{fill:url(#SVGID_5_);stroke:url(#SVGID_6_);stroke-miterlimit:10;}
	.st3{fill:url(#SVGID_7_);stroke:url(#SVGID_8_);stroke-miterlimit:10;}
	.st4{fill:url(#SVGID_9_);}
	.st5{fill:url(#SVGID_10_);stroke:url(#SVGID_11_);stroke-miterlimit:10;}
	.st6{fill:url(#SVGID_12_);stroke:url(#SVGID_13_);stroke-miterlimit:10;}
	.st7{fill:url(#SVGID_14_);}
	.st8{fill:url(#SVGID_15_);stroke:url(#SVGID_16_);stroke-miterlimit:10;}
	.st9{fill:url(#SVGID_17_);}
	.st10{fill:url(#SVGID_18_);}
	.st11{fill:url(#SVGID_19_);stroke:url(#SVGID_20_);stroke-miterlimit:10;}
	.st12{fill:url(#SVGID_21_);stroke:url(#SVGID_22_);stroke-miterlimit:10;}
	.st13{fill:url(#SVGID_23_);stroke:url(#SVGID_24_);stroke-miterlimit:10;}
	.st14{fill:url(#SVGID_25_);}
	.st15{fill:url(#SVGID_26_);stroke:url(#SVGID_27_);stroke-miterlimit:10;}
	.st16{fill:url(#SVGID_28_);}
	.st17{fill:url(#SVGID_29_);}
	.st18{fill:url(#SVGID_30_);stroke:url(#SVGID_31_);stroke-miterlimit:10;}
	.st19{fill:url(#SVGID_32_);}
	.st20{fill:url(#SVGID_33_);stroke:url(#SVGID_34_);stroke-miterlimit:10;}
	.st21{fill:url(#SVGID_35_);}
	.st22{fill:url(#SVGID_36_);}
	.st23{fill:url(#SVGID_37_);stroke:url(#SVGID_38_);stroke-miterlimit:10;}
	.st24{fill:url(#SVGID_39_);}
	.st25{fill:url(#SVGID_40_);}
	.st26{fill:url(#SVGID_41_);}
	.st27{fill:url(#SVGID_42_);stroke:url(#SVGID_43_);stroke-miterlimit:10;}
	.st28{fill:url(#SVGID_44_);stroke:url(#SVGID_45_);stroke-miterlimit:10;}
	.st29{fill:url(#SVGID_46_);}
	.st30{fill:url(#SVGID_47_);}
	.st31{fill:url(#SVGID_48_);stroke:url(#SVGID_49_);stroke-miterlimit:10;}
	.st32{fill:url(#SVGID_50_);}
	.st33{fill:url(#SVGID_51_);}
	.st34{fill:url(#SVGID_52_);}
	.st35{fill:url(#SVGID_53_);stroke:url(#SVGID_54_);stroke-miterlimit:10;}
	.st36{fill:url(#SVGID_55_);}
	.st37{fill:url(#SVGID_56_);stroke:url(#SVGID_57_);stroke-miterlimit:10;}
	.st38{fill:url(#SVGID_58_);}
	.st39{fill:url(#SVGID_59_);}
	.st40{fill:url(#SVGID_60_);stroke:url(#SVGID_61_);stroke-miterlimit:10;}
	.st41{fill:url(#SVGID_62_);}
	.st42{fill:url(#SVGID_63_);}
	.st43{fill:url(#SVGID_64_);stroke:url(#SVGID_65_);stroke-miterlimit:10;}
	.st44{fill:url(#SVGID_66_);}
	.st45{fill:url(#SVGID_67_);}
	.st46{fill:url(#SVGID_68_);}
	.st47{fill:url(#SVGID_69_);stroke:url(#SVGID_70_);stroke-miterlimit:10;}
	.st48{fill:url(#SVGID_71_);}
	.st49{fill:url(#SVGID_72_);}
	.st50{fill:url(#SVGID_73_);stroke:url(#SVGID_74_);stroke-miterlimit:10;}
	.st51{fill:url(#SVGID_75_);}
	.st52{fill:url(#SVGID_76_);}
	.st53{fill:url(#SVGID_77_);}
	.st54{fill:url(#SVGID_78_);stroke:url(#SVGID_79_);stroke-miterlimit:10;}
	.st55{fill:url(#SVGID_80_);}
	.st56{fill:url(#SVGID_81_);}
	.st57{fill:url(#SVGID_82_);}
	.st58{fill:url(#SVGID_83_);stroke:url(#SVGID_84_);stroke-miterlimit:10;}
	.st59{fill:url(#SVGID_85_);}
	.st60{fill:url(#SVGID_86_);}
	.st61{fill:url(#SVGID_87_);}
	.st62{fill:url(#SVGID_88_);}
	.st63{fill:none;stroke:url(#SVGID_89_);stroke-miterlimit:10;}
	.st64{fill:none;stroke:url(#SVGID_90_);stroke-miterlimit:10;}
	.st65{fill:none;stroke:url(#SVGID_91_);stroke-miterlimit:10;}
	.st66{fill:none;stroke:url(#SVGID_92_);stroke-miterlimit:10;}
	.st67{fill:none;stroke:url(#SVGID_93_);stroke-miterlimit:10;}
	.st68{fill:url(#SVGID_94_);stroke:url(#SVGID_95_);stroke-miterlimit:10;}
	.st69{fill:#FFFFFF;}
	.st70{font-family:'BernardMT-Condensed';}
	.st71{font-size:193.9524px;}
	.st72{fill:none;}
</style>
<g>
	<linearGradient id="SVGID_1_" gradientUnits="userSpaceOnUse" x1="371.7074" y1="1049.3289" x2="830.5871" y2="1049.3289">
		<stop  offset="0.3065" style="stop-color:#F9B41C"/>
		<stop  offset="0.4698" style="stop-color:#C49355"/>
		<stop  offset="0.6407" style="stop-color:#014881"/>
		<stop  offset="0.7286" style="stop-color:#263684"/>
	</linearGradient>
	
		<linearGradient id="SVGID_2_" gradientUnits="userSpaceOnUse" x1="2854.7141" y1="895.8831" x2="3426.2612" y2="895.8831" gradientTransform="matrix(0.0156 -0.9999 0.9999 0.0156 -341.847 4106.7764)">
		<stop  offset="0" style="stop-color:#060606"/>
		<stop  offset="1" style="stop-color:#000000"/>
	</linearGradient>
	<path class="st0" d="M482.56,852.42C416.93,892.15,371.71,975.7,371.71,975.7c0,21.58,267.15,213.06,458.88,270.54
		c-3.44-1.73-6.87-3.51-10.27-5.39C725.98,1188.6,563.13,996.03,482.56,852.42z"/>
	
		<linearGradient id="SVGID_3_" gradientUnits="userSpaceOnUse" x1="2033.8452" y1="911.3367" x2="2609.9507" y2="911.3367" gradientTransform="matrix(0.4853 -0.8743 0.8743 0.4853 -896.8664 2613.8247)">
		<stop  offset="0" style="stop-color:#FFFFFF"/>
		<stop  offset="1" style="stop-color:#F9FBF7"/>
	</linearGradient>
	
		<linearGradient id="SVGID_4_" gradientUnits="userSpaceOnUse" x1="2033.3691" y1="911.4061" x2="2557.4375" y2="911.4061" gradientTransform="matrix(0.4853 -0.8743 0.8743 0.4853 -896.8664 2613.8247)">
		<stop  offset="0" style="stop-color:#060606"/>
		<stop  offset="1" style="stop-color:#000000"/>
	</linearGradient>
	<path class="st1" d="M830.59,1246.23c41.91,21.08,86.74,30.93,130.95,30.63c-43-0.12-85.79-9.89-125-28.85
		C834.57,1247.43,832.58,1246.83,830.59,1246.23z"/>
	
		<linearGradient id="SVGID_5_" gradientUnits="userSpaceOnUse" x1="2033.27" y1="376.3047" x2="2607.6357" y2="376.3047" gradientTransform="matrix(0.4853 -0.8743 0.8743 0.4853 -896.8664 2613.8247)">
		<stop  offset="0" style="stop-color:#F8AE38"/>
		<stop  offset="0.0578" style="stop-color:#F7AB27"/>
		<stop  offset="1" style="stop-color:#FFCD2A"/>
	</linearGradient>
	
		<linearGradient id="SVGID_6_" gradientUnits="userSpaceOnUse" x1="2037.0522" y1="376.3206" x2="2605.5149" y2="376.3206" gradientTransform="matrix(0.4853 -0.8743 0.8743 0.4853 -896.8664 2613.8247)">
		<stop  offset="0" style="stop-color:#060606"/>
		<stop  offset="1" style="stop-color:#000000"/>
	</linearGradient>
	<path class="st2" d="M764.65,652.24c-148.71-17.28-325.33,49.49-325.33,49.49c-21.57,20.61,5.23,82.93,43.25,150.69
		c67.4-40.8,156.99-78.14,244.08-105.88C738.14,715.26,750.97,683.43,764.65,652.24z"/>
	
		<linearGradient id="SVGID_7_" gradientUnits="userSpaceOnUse" x1="2854.9871" y1="953.4736" x2="3428.7581" y2="953.4736" gradientTransform="matrix(0.0156 -0.9999 0.9999 0.0156 -341.847 4106.7764)">
		<stop  offset="0" style="stop-color:#FFFFFF"/>
		<stop  offset="1" style="stop-color:#F9FBF7"/>
	</linearGradient>
	
		<linearGradient id="SVGID_8_" gradientUnits="userSpaceOnUse" x1="2854.6511" y1="953.2412" x2="3427.3811" y2="953.2412" gradientTransform="matrix(0.0156 -0.9999 0.9999 0.0156 -341.847 4106.7764)">
		<stop  offset="0" style="stop-color:#060606"/>
		<stop  offset="1" style="stop-color:#000000"/>
	</linearGradient>
	<path class="st3" d="M743.48,1176.26c-39.66-46.37-61.86-101.71-67.37-158.1c-2.43-15-3.74-30.37-3.74-46.06
		c0-53.04,21.8-137.14,54.28-225.55c-87.09,27.73-176.68,65.08-244.08,105.88c80.57,143.6,243.41,336.17,337.75,388.41
		c3.4,1.88,6.83,3.66,10.27,5.39c1.99,0.6,3.98,1.2,5.95,1.78C801.91,1231.26,770.06,1207.35,743.48,1176.26z"/>
	<linearGradient id="SVGID_9_" gradientUnits="userSpaceOnUse" x1="482.5638" y1="997.2777" x2="836.5421" y2="997.2777">
		<stop  offset="0" style="stop-color:#F8AD0E"/>
		<stop  offset="0.2136" style="stop-color:#EFA000"/>
		<stop  offset="0.4447" style="stop-color:#E4AE38"/>
		<stop  offset="1" style="stop-color:#1E3C73"/>
	</linearGradient>
	<path class="st4" d="M743.48,1176.26c-39.66-46.37-61.86-101.71-67.37-158.1c-2.43-15-3.74-30.37-3.74-46.06
		c0-53.04,21.8-137.14,54.28-225.55c-87.09,27.73-176.68,65.08-244.08,105.88c80.57,143.6,243.41,336.17,337.75,388.41
		c3.4,1.88,6.83,3.66,10.27,5.39c1.99,0.6,3.98,1.2,5.95,1.78C801.91,1231.26,770.06,1207.35,743.48,1176.26z"/>
	<linearGradient id="SVGID_10_" gradientUnits="userSpaceOnUse" x1="672.3658" y1="530.7735" x2="1247.4874" y2="530.7735">
		<stop  offset="0" style="stop-color:#F59F15"/>
		<stop  offset="1" style="stop-color:#FABB2F"/>
	</linearGradient>
	<linearGradient id="SVGID_11_" gradientUnits="userSpaceOnUse" x1="674.3176" y1="530.7595" x2="1245.6267" y2="530.7595">
		<stop  offset="0" style="stop-color:#060606"/>
		<stop  offset="1" style="stop-color:#000000"/>
	</linearGradient>
	<path class="st5" d="M1151.21,614.34c-55.77-128.1-191.28-236.22-191.28-236.22c-20.49,5.91-132.13,130.2-195.28,274.12
		c59.75,6.94,120.29,17.91,174.79,31.18C1005.36,656.64,1080.32,632.19,1151.21,614.34z"/>
	
		<linearGradient id="SVGID_12_" gradientUnits="userSpaceOnUse" x1="2033.1372" y1="584.7082" x2="2607.7893" y2="584.7082" gradientTransform="matrix(0.4853 -0.8743 0.8743 0.4853 -896.8664 2613.8247)">
		<stop  offset="0" style="stop-color:#FFFFFF"/>
		<stop  offset="1" style="stop-color:#F9FBF7"/>
	</linearGradient>
	
		<linearGradient id="SVGID_13_" gradientUnits="userSpaceOnUse" x1="2054.9531" y1="585.1223" x2="2605.2058" y2="585.1223" gradientTransform="matrix(0.4853 -0.8743 0.8743 0.4853 -896.8664 2613.8247)">
		<stop  offset="0" style="stop-color:#060606"/>
		<stop  offset="1" style="stop-color:#000000"/>
	</linearGradient>
	<path class="st6" d="M860.55,711.22c13.48-5.01,27.45-9.1,41.88-12.08c11.94-5.31,24.3-10.56,37-15.72
		c-54.5-13.27-115.04-24.24-174.79-31.18c-13.68,31.19-26.5,63.01-38,94.3C773.28,731.7,819.17,719.61,860.55,711.22z"/>
	<linearGradient id="SVGID_14_" gradientUnits="userSpaceOnUse" x1="672.3658" y1="699.3945" x2="1247.4874" y2="699.3945">
		<stop  offset="0" style="stop-color:#F8C000"/>
		<stop  offset="1" style="stop-color:#FFCB20"/>
	</linearGradient>
	<path class="st7" d="M860.55,711.22c13.48-5.01,27.45-9.1,41.88-12.08c11.94-5.31,24.3-10.56,37-15.72
		c-54.5-13.27-115.04-24.24-174.79-31.18c-13.68,31.19-26.5,63.01-38,94.3C773.28,731.7,819.17,719.61,860.55,711.22z"/>
	
		<linearGradient id="SVGID_15_" gradientUnits="userSpaceOnUse" x1="2854.9756" y1="1057.0919" x2="3428.7637" y2="1057.0919" gradientTransform="matrix(0.0156 -0.9999 0.9999 0.0156 -341.847 4106.7764)">
		<stop  offset="0" style="stop-color:#FFFFFF"/>
		<stop  offset="1" style="stop-color:#F9FBF7"/>
	</linearGradient>
	
		<linearGradient id="SVGID_16_" gradientUnits="userSpaceOnUse" x1="2854.6948" y1="1056.9326" x2="3429.1946" y2="1056.9326" gradientTransform="matrix(0.0156 -0.9999 0.9999 0.0156 -341.847 4106.7764)">
		<stop  offset="0" style="stop-color:#060606"/>
		<stop  offset="1" style="stop-color:#000000"/>
	</linearGradient>
	<path class="st8" d="M675.18,1010.9c-14.47-133.24,64.99-254.97,185.37-299.68c-41.38,8.39-87.27,20.47-133.9,35.32
		c-32.48,88.41-54.28,172.51-54.28,225.55c0,15.68,1.31,31.06,3.74,46.06c-0.03-0.26-0.03-0.53-0.05-0.79
		C675.77,1015.21,675.42,1013.08,675.18,1010.9z"/>
	
		<linearGradient id="SVGID_17_" gradientUnits="userSpaceOnUse" x1="2033.5975" y1="563.2372" x2="2607.7092" y2="563.2372" gradientTransform="matrix(0.4853 -0.8743 0.8743 0.4853 -896.8664 2613.8247)">
		<stop  offset="0" style="stop-color:#FFFFFF"/>
		<stop  offset="1" style="stop-color:#F9FBF7"/>
	</linearGradient>
	<path class="st9" d="M675.18,1010.9c-14.47-133.24,64.99-254.97,185.37-299.68c-41.38,8.39-87.27,20.47-133.9,35.32
		c-32.48,88.41-54.28,172.51-54.28,225.55c0,15.68,1.31,31.06,3.74,46.06c-0.03-0.26-0.03-0.53-0.05-0.79
		C675.77,1015.21,675.42,1013.08,675.18,1010.9z"/>
	<linearGradient id="SVGID_18_" gradientUnits="userSpaceOnUse" x1="672.3658" y1="864.691" x2="1247.4874" y2="864.691">
		<stop  offset="0" style="stop-color:#EBB004"/>
		<stop  offset="1" style="stop-color:#F7A916"/>
	</linearGradient>
	<path class="st10" d="M675.18,1010.9c-14.47-133.24,64.99-254.97,185.37-299.68c-41.38,8.39-87.27,20.47-133.9,35.32
		c-32.48,88.41-54.28,172.51-54.28,225.55c0,15.68,1.31,31.06,3.74,46.06c-0.03-0.26-0.03-0.53-0.05-0.79
		C675.77,1015.21,675.42,1013.08,675.18,1010.9z"/>
	
		<linearGradient id="SVGID_19_" gradientUnits="userSpaceOnUse" x1="267.239" y1="1673.4733" x2="841.726" y2="1673.4733" gradientTransform="matrix(0.6491 0.7607 -0.7607 0.6491 2233.147 -822.5128)">
		<stop  offset="0" style="stop-color:#F5A02B"/>
		<stop  offset="0.0112" style="stop-color:#F5A22E"/>
		<stop  offset="0.0974" style="stop-color:#F8B141"/>
		<stop  offset="0.1863" style="stop-color:#F9B94C"/>
		<stop  offset="0.2809" style="stop-color:#FABC50"/>
		<stop  offset="0.6685" style="stop-color:#F08F34"/>
		<stop  offset="0.7714" style="stop-color:#F08954"/>
		<stop  offset="0.8876" style="stop-color:#E86031"/>
		<stop  offset="1" style="stop-color:#E2312D"/>
	</linearGradient>
	
		<linearGradient id="SVGID_20_" gradientUnits="userSpaceOnUse" x1="270.0574" y1="1673.4739" x2="838.5751" y2="1673.4739" gradientTransform="matrix(0.6491 0.7607 -0.7607 0.6491 2233.147 -822.5128)">
		<stop  offset="0" style="stop-color:#060606"/>
		<stop  offset="1" style="stop-color:#000000"/>
	</linearGradient>
	<path class="st11" d="M1401.78,804.65c32.5-87.88,29.68-160.52,13.38-200.13c0,0-139.54-21.5-263.95,9.82
		c16.88,38.78,32.3,79.38,45.63,119.37C1268.36,753.19,1340.94,778.08,1401.78,804.65z"/>
	
		<linearGradient id="SVGID_21_" gradientUnits="userSpaceOnUse" x1="265.3375" y1="2258.5779" x2="841.1219" y2="2258.5779" gradientTransform="matrix(0.6491 0.7607 -0.7607 0.6491 2233.147 -822.5128)">
		<stop  offset="0" style="stop-color:#FFFFFF"/>
		<stop  offset="1" style="stop-color:#F9FBF7"/>
	</linearGradient>
	
		<linearGradient id="SVGID_22_" gradientUnits="userSpaceOnUse" x1="311.7938" y1="2256.4929" x2="838.5668" y2="2256.4929" gradientTransform="matrix(0.6491 0.7607 -0.7607 0.6491 2233.147 -822.5128)">
		<stop  offset="0" style="stop-color:#060606"/>
		<stop  offset="1" style="stop-color:#000000"/>
	</linearGradient>
	<path class="st12" d="M961.54,1276.86c52.32,0.15,104.85-13.88,151.42-42.53c-1.88,0.66-3.74,1.29-5.6,1.93
		C1063.31,1262.44,1012.86,1276.52,961.54,1276.86z"/>
	
		<linearGradient id="SVGID_23_" gradientUnits="userSpaceOnUse" x1="2033.8494" y1="968.266" x2="2608.873" y2="968.266" gradientTransform="matrix(0.4853 -0.8743 0.8743 0.4853 -896.8664 2613.8247)">
		<stop  offset="0" style="stop-color:#FFFFFF"/>
		<stop  offset="1" style="stop-color:#F9FBF7"/>
	</linearGradient>
	
		<linearGradient id="SVGID_24_" gradientUnits="userSpaceOnUse" x1="2033.5336" y1="969.6467" x2="2545.6978" y2="969.6467" gradientTransform="matrix(0.4853 -0.8743 0.8743 0.4853 -896.8664 2613.8247)">
		<stop  offset="0" style="stop-color:#060606"/>
		<stop  offset="1" style="stop-color:#000000"/>
	</linearGradient>
	<path class="st13" d="M1103.18,1237.66c-41.82,22.48-89.79,34.98-140.67,34.18c-32.51-0.51-76.53-9.33-125.97-23.83
		c39.21,18.96,82,28.73,125,28.85c51.32-0.34,101.77-14.42,145.82-40.6C1105.94,1236.75,1104.58,1237.18,1103.18,1237.66z"/>
	
		<linearGradient id="SVGID_25_" gradientUnits="userSpaceOnUse" x1="265.9214" y1="2299.5183" x2="841.1151" y2="2299.5183" gradientTransform="matrix(0.6491 0.7607 -0.7607 0.6491 2233.147 -822.5128)">
		<stop  offset="0" style="stop-color:#FFFFFF"/>
		<stop  offset="1" style="stop-color:#F9FBF7"/>
	</linearGradient>
	<path class="st14" d="M1103.18,1237.66c-41.82,22.48-89.79,34.98-140.67,34.18c-32.51-0.51-76.53-9.33-125.97-23.83
		c39.21,18.96,82,28.73,125,28.85c51.32-0.34,101.77-14.42,145.82-40.6C1105.94,1236.75,1104.58,1237.18,1103.18,1237.66z"/>
	
		<linearGradient id="SVGID_26_" gradientUnits="userSpaceOnUse" x1="2854.9912" y1="1184.748" x2="3428.7429" y2="1184.748" gradientTransform="matrix(0.0156 -0.9999 0.9999 0.0156 -341.847 4106.7764)">
		<stop  offset="0" style="stop-color:#FFFFFF"/>
		<stop  offset="1" style="stop-color:#F9FBF7"/>
	</linearGradient>
	
		<linearGradient id="SVGID_27_" gradientUnits="userSpaceOnUse" x1="2854.4912" y1="1184.6215" x2="3427.7173" y2="1184.6215" gradientTransform="matrix(0.0156 -0.9999 0.9999 0.0156 -341.847 4106.7764)">
		<stop  offset="0" style="stop-color:#060606"/>
		<stop  offset="1" style="stop-color:#000000"/>
	</linearGradient>
	<path class="st15" d="M676.29,1019.19c-0.06-0.35-0.14-0.69-0.19-1.03c5.52,56.39,27.72,111.73,67.37,158.1
		c26.59,31.09,58.43,55,93.07,71.75c49.44,14.5,93.46,23.32,125.97,23.83c50.88,0.79,98.85-11.7,140.67-34.18
		c-43.06,14.56-81.64,24.37-111.13,27.56C836.95,1281.98,697.4,1172.38,676.29,1019.19z"/>
	
		<linearGradient id="SVGID_28_" gradientUnits="userSpaceOnUse" x1="2033.834" y1="840.8627" x2="2608.9304" y2="840.8627" gradientTransform="matrix(0.4853 -0.8743 0.8743 0.4853 -896.8664 2613.8247)">
		<stop  offset="0" style="stop-color:#FFFFFF"/>
		<stop  offset="1" style="stop-color:#F9FBF7"/>
	</linearGradient>
	<path class="st16" d="M676.29,1019.19c-0.06-0.35-0.14-0.69-0.19-1.03c5.52,56.39,27.72,111.73,67.37,158.1
		c26.59,31.09,58.43,55,93.07,71.75c49.44,14.5,93.46,23.32,125.97,23.83c50.88,0.79,98.85-11.7,140.67-34.18
		c-43.06,14.56-81.64,24.37-111.13,27.56C836.95,1281.98,697.4,1172.38,676.29,1019.19z"/>
	
		<linearGradient id="SVGID_29_" gradientUnits="userSpaceOnUse" x1="266.4907" y1="2313.6733" x2="841.1055" y2="2313.6733" gradientTransform="matrix(0.6491 0.7607 -0.7607 0.6491 2233.147 -822.5128)">
		<stop  offset="0" style="stop-color:#FFFFFF"/>
		<stop  offset="1" style="stop-color:#F9FBF7"/>
	</linearGradient>
	<path class="st17" d="M676.29,1019.19c-0.06-0.35-0.14-0.69-0.19-1.03c5.52,56.39,27.72,111.73,67.37,158.1
		c26.59,31.09,58.43,55,93.07,71.75c49.44,14.5,93.46,23.32,125.97,23.83c50.88,0.79,98.85-11.7,140.67-34.18
		c-43.06,14.56-81.64,24.37-111.13,27.56C836.95,1281.98,697.4,1172.38,676.29,1019.19z"/>
	<linearGradient id="SVGID_30_" gradientUnits="userSpaceOnUse" x1="672.3658" y1="674.0287" x2="1247.4874" y2="674.0287">
		<stop  offset="0" style="stop-color:#FFFFFF"/>
		<stop  offset="1" style="stop-color:#F9FBF7"/>
	</linearGradient>
	<linearGradient id="SVGID_31_" gradientUnits="userSpaceOnUse" x1="686.9302" y1="674.0984" x2="1244.8922" y2="674.0984">
		<stop  offset="0" style="stop-color:#060606"/>
		<stop  offset="1" style="stop-color:#000000"/>
	</linearGradient>
	<path class="st18" d="M979.81,694.01c59.2,3.08,137.43,18.03,217.03,39.71c-13.33-39.99-28.74-80.59-45.63-119.37
		c-70.89,17.84-145.85,42.3-211.77,69.08C953.34,686.81,966.81,690.35,979.81,694.01z"/>
	
		<linearGradient id="SVGID_32_" gradientUnits="userSpaceOnUse" x1="266.9962" y1="1858.6459" x2="841.8665" y2="1858.6459" gradientTransform="matrix(0.6491 0.7607 -0.7607 0.6491 2233.147 -822.5128)">
		<stop  offset="0" style="stop-color:#F8B905"/>
		<stop  offset="1" style="stop-color:#F9B51F"/>
	</linearGradient>
	<path class="st19" d="M979.81,694.01c59.2,3.08,137.43,18.03,217.03,39.71c-13.33-39.99-28.74-80.59-45.63-119.37
		c-70.89,17.84-145.85,42.3-211.77,69.08C953.34,686.81,966.81,690.35,979.81,694.01z"/>
	
		<linearGradient id="SVGID_33_" gradientUnits="userSpaceOnUse" x1="2032.8525" y1="676.5426" x2="2607.8298" y2="676.5426" gradientTransform="matrix(0.4853 -0.8743 0.8743 0.4853 -896.8664 2613.8247)">
		<stop  offset="0" style="stop-color:#FFFFFF"/>
		<stop  offset="1" style="stop-color:#F9FBF7"/>
	</linearGradient>
	
		<linearGradient id="SVGID_34_" gradientUnits="userSpaceOnUse" x1="2202.3809" y1="677.0681" x2="2599.7732" y2="677.0681" gradientTransform="matrix(0.4853 -0.8743 0.8743 0.4853 -896.8664 2613.8247)">
		<stop  offset="0" style="stop-color:#060606"/>
		<stop  offset="1" style="stop-color:#000000"/>
	</linearGradient>
	<path class="st20" d="M979.81,694.01c-13-3.66-26.47-7.2-40.37-10.58c-12.71,5.16-25.06,10.41-37,15.72
		c9.05-1.87,18.27-3.36,27.65-4.37C944.4,693.23,961.17,693.04,979.81,694.01z"/>
	<linearGradient id="SVGID_35_" gradientUnits="userSpaceOnUse" x1="672.3658" y1="691.287" x2="1247.4874" y2="691.287">
		<stop  offset="0" style="stop-color:#FFFFFF"/>
		<stop  offset="1" style="stop-color:#F9FBF7"/>
	</linearGradient>
	<path class="st21" d="M979.81,694.01c-13-3.66-26.47-7.2-40.37-10.58c-12.71,5.16-25.06,10.41-37,15.72
		c9.05-1.87,18.27-3.36,27.65-4.37C944.4,693.23,961.17,693.04,979.81,694.01z"/>
	
		<linearGradient id="SVGID_36_" gradientUnits="userSpaceOnUse" x1="266.9458" y1="1968.8711" x2="842.1812" y2="1968.8711" gradientTransform="matrix(0.6491 0.7607 -0.7607 0.6491 2233.147 -822.5128)">
		<stop  offset="0" style="stop-color:#FFFFFF"/>
		<stop  offset="1" style="stop-color:#F9FBF7"/>
	</linearGradient>
	<path class="st22" d="M979.81,694.01c-13-3.66-26.47-7.2-40.37-10.58c-12.71,5.16-25.06,10.41-37,15.72
		c9.05-1.87,18.27-3.36,27.65-4.37C944.4,693.23,961.17,693.04,979.81,694.01z"/>
	
		<linearGradient id="SVGID_37_" gradientUnits="userSpaceOnUse" x1="2854.9822" y1="969.5909" x2="3428.7551" y2="969.5909" gradientTransform="matrix(0.0156 -0.9999 0.9999 0.0156 -341.847 4106.7764)">
		<stop  offset="0" style="stop-color:#FFFFFF"/>
		<stop  offset="1" style="stop-color:#F9FBF7"/>
	</linearGradient>
	
		<linearGradient id="SVGID_38_" gradientUnits="userSpaceOnUse" x1="2918.7107" y1="969.5896" x2="3345.1218" y2="969.5896" gradientTransform="matrix(0.0156 -0.9999 0.9999 0.0156 -341.847 4106.7764)">
		<stop  offset="0" style="stop-color:#060606"/>
		<stop  offset="1" style="stop-color:#000000"/>
	</linearGradient>
	<path class="st23" d="M676.05,1017.37c0.03,0.26,0.03,0.53,0.05,0.79c0.06,0.35,0.13,0.69,0.19,1.03
		C676.21,1018.58,676.13,1017.97,676.05,1017.37z"/>
	
		<linearGradient id="SVGID_39_" gradientUnits="userSpaceOnUse" x1="2033.6942" y1="601.0144" x2="2607.3618" y2="601.0144" gradientTransform="matrix(0.4853 -0.8743 0.8743 0.4853 -896.8664 2613.8247)">
		<stop  offset="0" style="stop-color:#FFFFFF"/>
		<stop  offset="1" style="stop-color:#F9FBF7"/>
	</linearGradient>
	<path class="st24" d="M676.05,1017.37c0.03,0.26,0.03,0.53,0.05,0.79c0.06,0.35,0.13,0.69,0.19,1.03
		C676.21,1018.58,676.13,1017.97,676.05,1017.37z"/>
	<linearGradient id="SVGID_40_" gradientUnits="userSpaceOnUse" x1="672.3658" y1="1018.278" x2="1247.4874" y2="1018.278">
		<stop  offset="0" style="stop-color:#FFFFFF"/>
		<stop  offset="1" style="stop-color:#F9FBF7"/>
	</linearGradient>
	<path class="st25" d="M676.05,1017.37c0.03,0.26,0.03,0.53,0.05,0.79c0.06,0.35,0.13,0.69,0.19,1.03
		C676.21,1018.58,676.13,1017.97,676.05,1017.37z"/>
	
		<linearGradient id="SVGID_41_" gradientUnits="userSpaceOnUse" x1="266.6408" y1="2379.2312" x2="840.5548" y2="2379.2312" gradientTransform="matrix(0.6491 0.7607 -0.7607 0.6491 2233.147 -822.5128)">
		<stop  offset="0" style="stop-color:#FFFFFF"/>
		<stop  offset="1" style="stop-color:#F9FBF7"/>
	</linearGradient>
	<path class="st26" d="M676.05,1017.37c0.03,0.26,0.03,0.53,0.05,0.79c0.06,0.35,0.13,0.69,0.19,1.03
		C676.21,1018.58,676.13,1017.97,676.05,1017.37z"/>
	<linearGradient id="SVGID_42_" gradientUnits="userSpaceOnUse" x1="1112.9596" y1="1019.4914" x2="1552.9749" y2="1019.4914">
		<stop  offset="0.2965" style="stop-color:#1E294D"/>
		<stop  offset="0.4648" style="stop-color:#1F3C87"/>
		<stop  offset="0.6558" style="stop-color:#F7AC4B"/>
	</linearGradient>
	
		<linearGradient id="SVGID_43_" gradientUnits="userSpaceOnUse" x1="601.3638" y1="2592.2737" x2="1166.5173" y2="2592.2737" gradientTransform="matrix(0.1077 0.9942 -0.9942 0.1077 3798.5413 -216.6082)">
		<stop  offset="0" style="stop-color:#060606"/>
		<stop  offset="1" style="stop-color:#000000"/>
	</linearGradient>
	<path class="st27" d="M1552.97,916c-0.18-33.72-65.86-74.08-151.19-111.35c-56.33,152.3-176.29,338.43-252.9,403.64
		c-11.46,9.75-23.49,18.38-35.92,26.03C1300.04,1168.94,1552.97,916,1552.97,916z"/>
	
		<linearGradient id="SVGID_44_" gradientUnits="userSpaceOnUse" x1="2033.1359" y1="628.5837" x2="2607.7966" y2="628.5837" gradientTransform="matrix(0.4853 -0.8743 0.8743 0.4853 -896.8664 2613.8247)">
		<stop  offset="0" style="stop-color:#FFFFFF"/>
		<stop  offset="1" style="stop-color:#F9FBF7"/>
	</linearGradient>
	
		<linearGradient id="SVGID_45_" gradientUnits="userSpaceOnUse" x1="2188.9856" y1="629.9917" x2="2581.0051" y2="629.9917" gradientTransform="matrix(0.4853 -0.8743 0.8743 0.4853 -896.8664 2613.8247)">
		<stop  offset="0" style="stop-color:#060606"/>
		<stop  offset="1" style="stop-color:#000000"/>
	</linearGradient>
	<path class="st28" d="M902.43,699.15c-14.43,2.98-28.4,7.07-41.88,12.08c8.93-1.81,17.64-3.45,26.11-4.9
		C891.83,703.92,897.08,701.53,902.43,699.15z"/>
	<linearGradient id="SVGID_46_" gradientUnits="userSpaceOnUse" x1="672.3658" y1="705.1859" x2="1247.4874" y2="705.1859">
		<stop  offset="0" style="stop-color:#FFFFFF"/>
		<stop  offset="1" style="stop-color:#F9FBF7"/>
	</linearGradient>
	<path class="st29" d="M902.43,699.15c-14.43,2.98-28.4,7.07-41.88,12.08c8.93-1.81,17.64-3.45,26.11-4.9
		C891.83,703.92,897.08,701.53,902.43,699.15z"/>
	
		<linearGradient id="SVGID_47_" gradientUnits="userSpaceOnUse" x1="597.0291" y1="2999.3833" x2="1169.9976" y2="2999.3833" gradientTransform="matrix(0.1077 0.9942 -0.9942 0.1077 3798.5413 -216.6082)">
		<stop  offset="0" style="stop-color:#FFFFFF"/>
		<stop  offset="1" style="stop-color:#F9FBF7"/>
	</linearGradient>
	<path class="st30" d="M902.43,699.15c-14.43,2.98-28.4,7.07-41.88,12.08c8.93-1.81,17.64-3.45,26.11-4.9
		C891.83,703.92,897.08,701.53,902.43,699.15z"/>
	
		<linearGradient id="SVGID_48_" gradientUnits="userSpaceOnUse" x1="2854.9749" y1="1070.7175" x2="3428.7646" y2="1070.7175" gradientTransform="matrix(0.0156 -0.9999 0.9999 0.0156 -341.847 4106.7764)">
		<stop  offset="0" style="stop-color:#FFFFFF"/>
		<stop  offset="1" style="stop-color:#F9FBF7"/>
	</linearGradient>
	
		<linearGradient id="SVGID_49_" gradientUnits="userSpaceOnUse" x1="2856.9421" y1="1072.2711" x2="3426.1504" y2="1072.2711" gradientTransform="matrix(0.0156 -0.9999 0.9999 0.0156 -341.847 4106.7764)">
		<stop  offset="0" style="stop-color:#060606"/>
		<stop  offset="1" style="stop-color:#000000"/>
	</linearGradient>
	<path class="st31" d="M675.18,1010.9c0.24,2.17,0.58,4.3,0.87,6.46c-8.55-89.94,25.42-182.47,99.54-245.56
		c24.85-21.16,64.04-43.67,111.07-65.48c-8.47,1.46-17.18,3.09-26.11,4.9C740.17,755.93,660.71,877.66,675.18,1010.9z"/>
	
		<linearGradient id="SVGID_50_" gradientUnits="userSpaceOnUse" x1="2033.5903" y1="588.8926" x2="2607.7332" y2="588.8926" gradientTransform="matrix(0.4853 -0.8743 0.8743 0.4853 -896.8664 2613.8247)">
		<stop  offset="0" style="stop-color:#FFFFFF"/>
		<stop  offset="1" style="stop-color:#F9FBF7"/>
	</linearGradient>
	<path class="st32" d="M675.18,1010.9c0.24,2.17,0.58,4.3,0.87,6.46c-8.55-89.94,25.42-182.47,99.54-245.56
		c24.85-21.16,64.04-43.67,111.07-65.48c-8.47,1.46-17.18,3.09-26.11,4.9C740.17,755.93,660.71,877.66,675.18,1010.9z"/>
	<linearGradient id="SVGID_51_" gradientUnits="userSpaceOnUse" x1="672.3658" y1="861.8448" x2="1247.4874" y2="861.8448">
		<stop  offset="0" style="stop-color:#FFFFFF"/>
		<stop  offset="1" style="stop-color:#F9FBF7"/>
	</linearGradient>
	<path class="st33" d="M675.18,1010.9c0.24,2.17,0.58,4.3,0.87,6.46c-8.55-89.94,25.42-182.47,99.54-245.56
		c24.85-21.16,64.04-43.67,111.07-65.48c-8.47,1.46-17.18,3.09-26.11,4.9C740.17,755.93,660.71,877.66,675.18,1010.9z"/>
	
		<linearGradient id="SVGID_52_" gradientUnits="userSpaceOnUse" x1="597.0244" y1="3115.9016" x2="1170.6938" y2="3115.9016" gradientTransform="matrix(0.1077 0.9942 -0.9942 0.1077 3798.5413 -216.6082)">
		<stop  offset="0" style="stop-color:#FFFFFF"/>
		<stop  offset="1" style="stop-color:#F9FBF7"/>
	</linearGradient>
	<path class="st34" d="M675.18,1010.9c0.24,2.17,0.58,4.3,0.87,6.46c-8.55-89.94,25.42-182.47,99.54-245.56
		c24.85-21.16,64.04-43.67,111.07-65.48c-8.47,1.46-17.18,3.09-26.11,4.9C740.17,755.93,660.71,877.66,675.18,1010.9z"/>
	
		<linearGradient id="SVGID_53_" gradientUnits="userSpaceOnUse" x1="267.515" y1="1940.6371" x2="841.1645" y2="1940.6371" gradientTransform="matrix(0.6491 0.7607 -0.7607 0.6491 2233.147 -822.5128)">
		<stop  offset="0" style="stop-color:#FFFFFF"/>
		<stop  offset="1" style="stop-color:#F9FBF7"/>
	</linearGradient>
	
		<linearGradient id="SVGID_54_" gradientUnits="userSpaceOnUse" x1="274.2901" y1="1942.6545" x2="841.6645" y2="1942.6545" gradientTransform="matrix(0.6491 0.7607 -0.7607 0.6491 2233.147 -822.5128)">
		<stop  offset="0" style="stop-color:#060606"/>
		<stop  offset="1" style="stop-color:#000000"/>
	</linearGradient>
	<path class="st35" d="M1401.78,804.65c-60.84-26.57-133.42-51.46-204.94-70.94c18.46,55.39,32.84,109.53,41.5,156.07
		c10.99,31.15,16.75,64.74,16.2,99.69c-1.53,97.65-51.83,183.09-127.35,233.73c-6.46,4.6-13.03,9.03-19.82,13.06
		c1.86-0.64,3.72-1.28,5.6-1.93c12.43-7.65,24.46-16.28,35.92-26.03C1225.49,1143.09,1345.45,956.96,1401.78,804.65z"/>
	
		<linearGradient id="SVGID_55_" gradientUnits="userSpaceOnUse" x1="597.1044" y1="2662.446" x2="1170.8539" y2="2662.446" gradientTransform="matrix(0.1077 0.9942 -0.9942 0.1077 3798.5413 -216.6082)">
		<stop  offset="0" style="stop-color:#2A6EB4"/>
		<stop  offset="0.2487" style="stop-color:#E49800"/>
	</linearGradient>
	<path class="st36" d="M1401.78,804.65c-60.84-26.57-133.42-51.46-204.94-70.94c18.46,55.39,32.84,109.53,41.5,156.07
		c10.99,31.15,16.75,64.74,16.2,99.69c-1.53,97.65-51.83,183.09-127.35,233.73c-6.46,4.6-13.03,9.03-19.82,13.06
		c1.86-0.64,3.72-1.28,5.6-1.93c12.43-7.65,24.46-16.28,35.92-26.03C1225.49,1143.09,1345.45,956.96,1401.78,804.65z"/>
	
		<linearGradient id="SVGID_56_" gradientUnits="userSpaceOnUse" x1="2854.9968" y1="1485.5892" x2="3428.7795" y2="1485.5892" gradientTransform="matrix(0.0156 -0.9999 0.9999 0.0156 -341.847 4106.7764)">
		<stop  offset="0" style="stop-color:#FFFFFF"/>
		<stop  offset="1" style="stop-color:#F9FBF7"/>
	</linearGradient>
	
		<linearGradient id="SVGID_57_" gradientUnits="userSpaceOnUse" x1="2854.4954" y1="1485.691" x2="3429.2805" y2="1485.691" gradientTransform="matrix(0.0156 -0.9999 0.9999 0.0156 -341.847 4106.7764)">
		<stop  offset="0" style="stop-color:#060606"/>
		<stop  offset="1" style="stop-color:#000000"/>
	</linearGradient>
	<path class="st37" d="M1247.28,980.16c1.78,50.35-9.69,101.82-35.98,149.08c-21.41,38.48-50.46,69.99-84.12,93.97
		c75.52-50.64,125.82-136.08,127.35-233.73c0.55-34.95-5.21-68.53-16.2-99.69c5.89,31.65,9.15,59.81,9.15,82.32
		C1247.49,974.8,1247.36,977.47,1247.28,980.16z"/>
	
		<linearGradient id="SVGID_58_" gradientUnits="userSpaceOnUse" x1="267.7971" y1="2018.6544" x2="841.171" y2="2018.6544" gradientTransform="matrix(0.6491 0.7607 -0.7607 0.6491 2233.147 -822.5128)">
		<stop  offset="0" style="stop-color:#FFFFFF"/>
		<stop  offset="1" style="stop-color:#F9FBF7"/>
	</linearGradient>
	<path class="st38" d="M1247.28,980.16c1.78,50.35-9.69,101.82-35.98,149.08c-21.41,38.48-50.46,69.99-84.12,93.97
		c75.52-50.64,125.82-136.08,127.35-233.73c0.55-34.95-5.21-68.53-16.2-99.69c5.89,31.65,9.15,59.81,9.15,82.32
		C1247.49,974.8,1247.36,977.47,1247.28,980.16z"/>
	
		<linearGradient id="SVGID_59_" gradientUnits="userSpaceOnUse" x1="597.1317" y1="2733.9358" x2="1170.8572" y2="2733.9358" gradientTransform="matrix(0.1077 0.9942 -0.9942 0.1077 3798.5413 -216.6082)">
		<stop  offset="0" style="stop-color:#FFFFFF"/>
		<stop  offset="1" style="stop-color:#F9FBF7"/>
	</linearGradient>
	<path class="st39" d="M1247.28,980.16c1.78,50.35-9.69,101.82-35.98,149.08c-21.41,38.48-50.46,69.99-84.12,93.97
		c75.52-50.64,125.82-136.08,127.35-233.73c0.55-34.95-5.21-68.53-16.2-99.69c5.89,31.65,9.15,59.81,9.15,82.32
		C1247.49,974.8,1247.36,977.47,1247.28,980.16z"/>
	
		<linearGradient id="SVGID_60_" gradientUnits="userSpaceOnUse" x1="2033.9987" y1="1087.8142" x2="2608.4189" y2="1087.8142" gradientTransform="matrix(0.4853 -0.8743 0.8743 0.4853 -896.8664 2613.8247)">
		<stop  offset="0" style="stop-color:#FFFFFF"/>
		<stop  offset="1" style="stop-color:#F9FBF7"/>
	</linearGradient>
	
		<linearGradient id="SVGID_61_" gradientUnits="userSpaceOnUse" x1="2045.5303" y1="1087.8295" x2="2572.8245" y2="1087.8295" gradientTransform="matrix(0.4853 -0.8743 0.8743 0.4853 -896.8664 2613.8247)">
		<stop  offset="0" style="stop-color:#060606"/>
		<stop  offset="1" style="stop-color:#000000"/>
	</linearGradient>
	<path class="st40" d="M1107.36,1236.26c6.79-4.03,13.36-8.46,19.82-13.06c-7.74,5.19-15.75,10.02-24,14.46
		C1104.58,1237.18,1105.94,1236.75,1107.36,1236.26z"/>
	
		<linearGradient id="SVGID_62_" gradientUnits="userSpaceOnUse" x1="262.7756" y1="2182.9587" x2="841.1531" y2="2182.9587" gradientTransform="matrix(0.6491 0.7607 -0.7607 0.6491 2233.147 -822.5128)">
		<stop  offset="0" style="stop-color:#FFFFFF"/>
		<stop  offset="1" style="stop-color:#F9FBF7"/>
	</linearGradient>
	<path class="st41" d="M1107.36,1236.26c6.79-4.03,13.36-8.46,19.82-13.06c-7.74,5.19-15.75,10.02-24,14.46
		C1104.58,1237.18,1105.94,1236.75,1107.36,1236.26z"/>
	
		<linearGradient id="SVGID_63_" gradientUnits="userSpaceOnUse" x1="597.3642" y1="2823.6467" x2="1170.8456" y2="2823.6467" gradientTransform="matrix(0.1077 0.9942 -0.9942 0.1077 3798.5413 -216.6082)">
		<stop  offset="0" style="stop-color:#FFFFFF"/>
		<stop  offset="1" style="stop-color:#F9FBF7"/>
	</linearGradient>
	<path class="st42" d="M1107.36,1236.26c6.79-4.03,13.36-8.46,19.82-13.06c-7.74,5.19-15.75,10.02-24,14.46
		C1104.58,1237.18,1105.94,1236.75,1107.36,1236.26z"/>
	
		<linearGradient id="SVGID_64_" gradientUnits="userSpaceOnUse" x1="2854.991" y1="1255.0684" x2="3428.7878" y2="1255.0684" gradientTransform="matrix(0.0156 -0.9999 0.9999 0.0156 -341.847 4106.7764)">
		<stop  offset="0" style="stop-color:#FFFFFF"/>
		<stop  offset="1" style="stop-color:#F9FBF7"/>
	</linearGradient>
	
		<linearGradient id="SVGID_65_" gradientUnits="userSpaceOnUse" x1="2854.5291" y1="1255.0713" x2="3429.1729" y2="1255.0713" gradientTransform="matrix(0.0156 -0.9999 0.9999 0.0156 -341.847 4106.7764)">
		<stop  offset="0" style="stop-color:#060606"/>
		<stop  offset="1" style="stop-color:#000000"/>
	</linearGradient>
	<path class="st43" d="M1211.3,1129.23c26.3-47.26,37.77-98.73,35.98-149.08c-4.29,154.71-131.25,278.83-287.36,278.83
		c-142.73,0-261.1-103.77-283.63-239.8c21.11,153.19,160.66,262.79,315.76,246.02c29.49-3.19,68.07-12.99,111.13-27.56
		c8.25-4.44,16.26-9.26,24-14.46C1160.84,1199.23,1189.89,1167.72,1211.3,1129.23z"/>
	
		<linearGradient id="SVGID_66_" gradientUnits="userSpaceOnUse" x1="2033.8253" y1="862.1549" x2="2608.2532" y2="862.1549" gradientTransform="matrix(0.4853 -0.8743 0.8743 0.4853 -896.8664 2613.8247)">
		<stop  offset="0" style="stop-color:#FFFFFF"/>
		<stop  offset="1" style="stop-color:#F9FBF7"/>
	</linearGradient>
	<path class="st44" d="M1211.3,1129.23c26.3-47.26,37.77-98.73,35.98-149.08c-4.29,154.71-131.25,278.83-287.36,278.83
		c-142.73,0-261.1-103.77-283.63-239.8c21.11,153.19,160.66,262.79,315.76,246.02c29.49-3.19,68.07-12.99,111.13-27.56
		c8.25-4.44,16.26-9.26,24-14.46C1160.84,1199.23,1189.89,1167.72,1211.3,1129.23z"/>
	
		<linearGradient id="SVGID_67_" gradientUnits="userSpaceOnUse" x1="266.4732" y1="2172.458" x2="841.1641" y2="2172.458" gradientTransform="matrix(0.6491 0.7607 -0.7607 0.6491 2233.147 -822.5128)">
		<stop  offset="0" style="stop-color:#FFFFFF"/>
		<stop  offset="1" style="stop-color:#F9FBF7"/>
	</linearGradient>
	<path class="st45" d="M1211.3,1129.23c26.3-47.26,37.77-98.73,35.98-149.08c-4.29,154.71-131.25,278.83-287.36,278.83
		c-142.73,0-261.1-103.77-283.63-239.8c21.11,153.19,160.66,262.79,315.76,246.02c29.49-3.19,68.07-12.99,111.13-27.56
		c8.25-4.44,16.26-9.26,24-14.46C1160.84,1199.23,1189.89,1167.72,1211.3,1129.23z"/>
	
		<linearGradient id="SVGID_68_" gradientUnits="userSpaceOnUse" x1="596.8857" y1="2951.282" x2="1170.8256" y2="2951.282" gradientTransform="matrix(0.1077 0.9942 -0.9942 0.1077 3798.5413 -216.6082)">
		<stop  offset="0" style="stop-color:#FFFFFF"/>
		<stop  offset="1" style="stop-color:#F9FBF7"/>
	</linearGradient>
	<path class="st46" d="M1211.3,1129.23c26.3-47.26,37.77-98.73,35.98-149.08c-4.29,154.71-131.25,278.83-287.36,278.83
		c-142.73,0-261.1-103.77-283.63-239.8c21.11,153.19,160.66,262.79,315.76,246.02c29.49-3.19,68.07-12.99,111.13-27.56
		c8.25-4.44,16.26-9.26,24-14.46C1160.84,1199.23,1189.89,1167.72,1211.3,1129.23z"/>
	<linearGradient id="SVGID_69_" gradientUnits="userSpaceOnUse" x1="672.3658" y1="791.8957" x2="1247.4874" y2="791.8957">
		<stop  offset="0" style="stop-color:#FFFFFF"/>
		<stop  offset="1" style="stop-color:#F9FBF7"/>
	</linearGradient>
	<linearGradient id="SVGID_70_" gradientUnits="userSpaceOnUse" x1="710.9653" y1="791.6128" x2="1247.3246" y2="791.6128">
		<stop  offset="0" style="stop-color:#060606"/>
		<stop  offset="1" style="stop-color:#000000"/>
	</linearGradient>
	<path class="st47" d="M1000.36,700.02c110.92,12.79,202.22,88.37,237.98,189.76c-8.66-46.54-23.04-100.68-41.5-156.07
		c-79.6-21.68-157.82-36.63-217.03-39.71C986.82,695.98,993.66,697.99,1000.36,700.02z"/>
	
		<linearGradient id="SVGID_71_" gradientUnits="userSpaceOnUse" x1="267.041" y1="1868.1067" x2="841.5289" y2="1868.1067" gradientTransform="matrix(0.6491 0.7607 -0.7607 0.6491 2233.147 -822.5128)">
		<stop  offset="0" style="stop-color:#FFFFFF"/>
		<stop  offset="1" style="stop-color:#F9FBF7"/>
	</linearGradient>
	<path class="st48" d="M1000.36,700.02c110.92,12.79,202.22,88.37,237.98,189.76c-8.66-46.54-23.04-100.68-41.5-156.07
		c-79.6-21.68-157.82-36.63-217.03-39.71C986.82,695.98,993.66,697.99,1000.36,700.02z"/>
	
		<radialGradient id="SVGID_72_" cx="1658.6171" cy="2265.9883" r="21.2495" gradientTransform="matrix(0.5818 5.3562 -5.3688 0.5805 12309.6279 -9407.3037)" gradientUnits="userSpaceOnUse">
		<stop  offset="0.1206" style="stop-color:#030E0C"/>
		<stop  offset="0.299" style="stop-color:#232620"/>
		<stop  offset="0.4045" style="stop-color:#FDC934"/>
		<stop  offset="1" style="stop-color:#ECA902"/>
	</radialGradient>
	<path class="st49" d="M1000.36,700.02c110.92,12.79,202.22,88.37,237.98,189.76c-8.66-46.54-23.04-100.68-41.5-156.07
		c-79.6-21.68-157.82-36.63-217.03-39.71C986.82,695.98,993.66,697.99,1000.36,700.02z"/>
	
		<linearGradient id="SVGID_73_" gradientUnits="userSpaceOnUse" x1="2855.0115" y1="1414.4429" x2="3428.7686" y2="1414.4429" gradientTransform="matrix(0.0156 -0.9999 0.9999 0.0156 -341.847 4106.7764)">
		<stop  offset="0" style="stop-color:#FFFFFF"/>
		<stop  offset="1" style="stop-color:#F9FBF7"/>
	</linearGradient>
	
		<linearGradient id="SVGID_74_" gradientUnits="userSpaceOnUse" x1="2854.885" y1="1414.6239" x2="3429.2673" y2="1414.6239" gradientTransform="matrix(0.0156 -0.9999 0.9999 0.0156 -341.847 4106.7764)">
		<stop  offset="0" style="stop-color:#060606"/>
		<stop  offset="1" style="stop-color:#000000"/>
	</linearGradient>
	<path class="st50" d="M1000.36,700.02c40.31,12.26,74.67,25.62,99.08,39.14c91.48,50.66,144.41,143.75,147.85,240.99
		c0.07-2.68,0.2-5.35,0.2-8.06c0-22.51-3.27-50.67-9.15-82.32C1202.58,788.4,1111.28,712.81,1000.36,700.02z"/>
	<linearGradient id="SVGID_75_" gradientUnits="userSpaceOnUse" x1="672.3658" y1="840.0901" x2="1247.4874" y2="840.0901">
		<stop  offset="0" style="stop-color:#FFFFFF"/>
		<stop  offset="1" style="stop-color:#F9FBF7"/>
	</linearGradient>
	<path class="st51" d="M1000.36,700.02c40.31,12.26,74.67,25.62,99.08,39.14c91.48,50.66,144.41,143.75,147.85,240.99
		c0.07-2.68,0.2-5.35,0.2-8.06c0-22.51-3.27-50.67-9.15-82.32C1202.58,788.4,1111.28,712.81,1000.36,700.02z"/>
	
		<linearGradient id="SVGID_76_" gradientUnits="userSpaceOnUse" x1="267.0714" y1="1887.5767" x2="841.4241" y2="1887.5767" gradientTransform="matrix(0.6491 0.7607 -0.7607 0.6491 2233.147 -822.5128)">
		<stop  offset="0" style="stop-color:#FFFFFF"/>
		<stop  offset="1" style="stop-color:#F9FBF7"/>
	</linearGradient>
	<path class="st52" d="M1000.36,700.02c40.31,12.26,74.67,25.62,99.08,39.14c91.48,50.66,144.41,143.75,147.85,240.99
		c0.07-2.68,0.2-5.35,0.2-8.06c0-22.51-3.27-50.67-9.15-82.32C1202.58,788.4,1111.28,712.81,1000.36,700.02z"/>
	
		<linearGradient id="SVGID_77_" gradientUnits="userSpaceOnUse" x1="597.0492" y1="2771.6074" x2="1170.9421" y2="2771.6074" gradientTransform="matrix(0.1077 0.9942 -0.9942 0.1077 3798.5413 -216.6082)">
		<stop  offset="0" style="stop-color:#FFFFFF"/>
		<stop  offset="1" style="stop-color:#F9FBF7"/>
	</linearGradient>
	<path class="st53" d="M1000.36,700.02c40.31,12.26,74.67,25.62,99.08,39.14c91.48,50.66,144.41,143.75,147.85,240.99
		c0.07-2.68,0.2-5.35,0.2-8.06c0-22.51-3.27-50.67-9.15-82.32C1202.58,788.4,1111.28,712.81,1000.36,700.02z"/>
	
		<linearGradient id="SVGID_78_" gradientUnits="userSpaceOnUse" x1="2032.8448" y1="681.8293" x2="2607.844" y2="681.8293" gradientTransform="matrix(0.4853 -0.8743 0.8743 0.4853 -896.8664 2613.8247)">
		<stop  offset="0" style="stop-color:#FFFFFF"/>
		<stop  offset="1" style="stop-color:#F9FBF7"/>
	</linearGradient>
	
		<linearGradient id="SVGID_79_" gradientUnits="userSpaceOnUse" x1="2131.0879" y1="680.6143" x2="2605.8748" y2="680.6143" gradientTransform="matrix(0.4853 -0.8743 0.8743 0.4853 -896.8664 2613.8247)">
		<stop  offset="0" style="stop-color:#060606"/>
		<stop  offset="1" style="stop-color:#000000"/>
	</linearGradient>
	<path class="st54" d="M971.5,698.13c9.75,0.15,19.37,0.8,28.85,1.89c-6.7-2.04-13.54-4.05-20.55-6.02
		c-18.64-0.97-35.41-0.78-49.72,0.77c-9.38,1.01-18.6,2.5-27.65,4.37c-5.36,2.38-10.6,4.78-15.78,7.18
		C919.38,700.7,948.42,697.77,971.5,698.13z"/>
	<linearGradient id="SVGID_80_" gradientUnits="userSpaceOnUse" x1="672.3658" y1="699.8692" x2="1247.4874" y2="699.8692">
		<stop  offset="0" style="stop-color:#FFFFFF"/>
		<stop  offset="1" style="stop-color:#F9FBF7"/>
	</linearGradient>
	<path class="st55" d="M971.5,698.13c9.75,0.15,19.37,0.8,28.85,1.89c-6.7-2.04-13.54-4.05-20.55-6.02
		c-18.64-0.97-35.41-0.78-49.72,0.77c-9.38,1.01-18.6,2.5-27.65,4.37c-5.36,2.38-10.6,4.78-15.78,7.18
		C919.38,700.7,948.42,697.77,971.5,698.13z"/>
	
		<linearGradient id="SVGID_81_" gradientUnits="userSpaceOnUse" x1="266.9347" y1="1971.3383" x2="842.1499" y2="1971.3383" gradientTransform="matrix(0.6491 0.7607 -0.7607 0.6491 2233.147 -822.5128)">
		<stop  offset="0" style="stop-color:#FFFFFF"/>
		<stop  offset="1" style="stop-color:#F9FBF7"/>
	</linearGradient>
	<path class="st56" d="M971.5,698.13c9.75,0.15,19.37,0.8,28.85,1.89c-6.7-2.04-13.54-4.05-20.55-6.02
		c-18.64-0.97-35.41-0.78-49.72,0.77c-9.38,1.01-18.6,2.5-27.65,4.37c-5.36,2.38-10.6,4.78-15.78,7.18
		C919.38,700.7,948.42,697.77,971.5,698.13z"/>
	
		<linearGradient id="SVGID_82_" gradientUnits="userSpaceOnUse" x1="597.034" y1="2937.5125" x2="1171.6062" y2="2937.5125" gradientTransform="matrix(0.1077 0.9942 -0.9942 0.1077 3798.5413 -216.6082)">
		<stop  offset="0" style="stop-color:#FFFFFF"/>
		<stop  offset="1" style="stop-color:#F9FBF7"/>
	</linearGradient>
	<path class="st57" d="M971.5,698.13c9.75,0.15,19.37,0.8,28.85,1.89c-6.7-2.04-13.54-4.05-20.55-6.02
		c-18.64-0.97-35.41-0.78-49.72,0.77c-9.38,1.01-18.6,2.5-27.65,4.37c-5.36,2.38-10.6,4.78-15.78,7.18
		C919.38,700.7,948.42,697.77,971.5,698.13z"/>
	
		<linearGradient id="SVGID_83_" gradientUnits="userSpaceOnUse" x1="2854.9912" y1="1253.8694" x2="3428.7676" y2="1253.8694" gradientTransform="matrix(0.0156 -0.9999 0.9999 0.0156 -341.847 4106.7764)">
		<stop  offset="0" style="stop-color:#FFFFFF"/>
		<stop  offset="1" style="stop-color:#F9FBF7"/>
	</linearGradient>
	
		<linearGradient id="SVGID_84_" gradientUnits="userSpaceOnUse" x1="2854.5901" y1="1253.8694" x2="3429.2676" y2="1253.8694" gradientTransform="matrix(0.0156 -0.9999 0.9999 0.0156 -341.847 4106.7764)">
		<stop  offset="0" style="stop-color:#060606"/>
		<stop  offset="1" style="stop-color:#000000"/>
	</linearGradient>
	<path class="st58" d="M886.66,706.32c-47.02,21.81-86.21,44.32-111.07,65.48c-74.12,63.09-108.09,155.62-99.54,245.56
		c0.08,0.61,0.16,1.22,0.25,1.82c22.53,136.03,140.9,239.8,283.63,239.8c156.11,0,283.07-124.12,287.36-278.83
		c-3.44-97.24-56.37-190.33-147.85-240.99c-24.41-13.52-58.76-26.88-99.08-39.14c-9.48-1.09-19.11-1.74-28.85-1.89
		C948.42,697.77,919.38,700.7,886.66,706.32z"/>
	
		<linearGradient id="SVGID_85_" gradientUnits="userSpaceOnUse" x1="2033.8258" y1="832.0284" x2="2607.9272" y2="832.0284" gradientTransform="matrix(0.4853 -0.8743 0.8743 0.4853 -896.8664 2613.8247)">
		<stop  offset="0" style="stop-color:#FFFFFF"/>
		<stop  offset="1" style="stop-color:#F9FBF7"/>
	</linearGradient>
	<path class="st59" d="M886.66,706.32c-47.02,21.81-86.21,44.32-111.07,65.48c-74.12,63.09-108.09,155.62-99.54,245.56
		c0.08,0.61,0.16,1.22,0.25,1.82c22.53,136.03,140.9,239.8,283.63,239.8c156.11,0,283.07-124.12,287.36-278.83
		c-3.44-97.24-56.37-190.33-147.85-240.99c-24.41-13.52-58.76-26.88-99.08-39.14c-9.48-1.09-19.11-1.74-28.85-1.89
		C948.42,697.77,919.38,700.7,886.66,706.32z"/>
	<linearGradient id="SVGID_86_" gradientUnits="userSpaceOnUse" x1="672.3658" y1="978.545" x2="1247.4874" y2="978.545">
		<stop  offset="0" style="stop-color:#FFFFFF"/>
		<stop  offset="1" style="stop-color:#F9FBF7"/>
	</linearGradient>
	<path class="st60" d="M886.66,706.32c-47.02,21.81-86.21,44.32-111.07,65.48c-74.12,63.09-108.09,155.62-99.54,245.56
		c0.08,0.61,0.16,1.22,0.25,1.82c22.53,136.03,140.9,239.8,283.63,239.8c156.11,0,283.07-124.12,287.36-278.83
		c-3.44-97.24-56.37-190.33-147.85-240.99c-24.41-13.52-58.76-26.88-99.08-39.14c-9.48-1.09-19.11-1.74-28.85-1.89
		C948.42,697.77,919.38,700.7,886.66,706.32z"/>
	
		<linearGradient id="SVGID_87_" gradientUnits="userSpaceOnUse" x1="266.8213" y1="2139.1689" x2="841.1759" y2="2139.1689" gradientTransform="matrix(0.6491 0.7607 -0.7607 0.6491 2233.147 -822.5128)">
		<stop  offset="0" style="stop-color:#FFFFFF"/>
		<stop  offset="1" style="stop-color:#F9FBF7"/>
	</linearGradient>
	<path class="st61" d="M886.66,706.32c-47.02,21.81-86.21,44.32-111.07,65.48c-74.12,63.09-108.09,155.62-99.54,245.56
		c0.08,0.61,0.16,1.22,0.25,1.82c22.53,136.03,140.9,239.8,283.63,239.8c156.11,0,283.07-124.12,287.36-278.83
		c-3.44-97.24-56.37-190.33-147.85-240.99c-24.41-13.52-58.76-26.88-99.08-39.14c-9.48-1.09-19.11-1.74-28.85-1.89
		C948.42,697.77,919.38,700.7,886.66,706.32z"/>
	
		<radialGradient id="SVGID_88_" cx="1690.1409" cy="2297.1924" r="52.519" gradientTransform="matrix(0.5818 5.3562 -5.3688 0.5805 12309.6279 -9407.3037)" gradientUnits="userSpaceOnUse">
		<stop  offset="0" style="stop-color:#FFFFFF"/>
		<stop  offset="0.6206" style="stop-color:#2F76BB"/>
		<stop  offset="1" style="stop-color:#213A8E"/>
	</radialGradient>
	<path class="st62" d="M886.66,706.32c-47.02,21.81-86.21,44.32-111.07,65.48c-74.12,63.09-108.09,155.62-99.54,245.56
		c0.08,0.61,0.16,1.22,0.25,1.82c22.53,136.03,140.9,239.8,283.63,239.8c156.11,0,283.07-124.12,287.36-278.83
		c-3.44-97.24-56.37-190.33-147.85-240.99c-24.41-13.52-58.76-26.88-99.08-39.14c-9.48-1.09-19.11-1.74-28.85-1.89
		C948.42,697.77,919.38,700.7,886.66,706.32z"/>
</g>
<linearGradient id="SVGID_89_" gradientUnits="userSpaceOnUse" x1="593.8774" y1="1145.0156" x2="1222.5448" y2="1145.0156">
	<stop  offset="0" style="stop-color:#ECECEC"/>
	<stop  offset="1" style="stop-color:#000000"/>
</linearGradient>
<line class="st63" x1="726.65" y1="1145.02" x2="1068.14" y2="1145.02"/>
<linearGradient id="SVGID_90_" gradientUnits="userSpaceOnUse" x1="989.3803" y1="1119.5717" x2="1172.6676" y2="1119.5717">
	<stop  offset="0" style="stop-color:#E3E3E3"/>
	<stop  offset="1" style="stop-color:#000000"/>
</linearGradient>
<line class="st64" x1="1127.18" y1="980.16" x2="1028.56" y2="1258.99"/>
<linearGradient id="SVGID_91_" gradientUnits="userSpaceOnUse" x1="907.2021" y1="960.0987" x2="1346.6146" y2="960.0987">
	<stop  offset="0" style="stop-color:#F1F1F1"/>
	<stop  offset="1" style="stop-color:#000000"/>
</linearGradient>
<line class="st65" x1="1000.36" y1="840.09" x2="1238.34" y2="1080.11"/>
<linearGradient id="SVGID_92_" gradientUnits="userSpaceOnUse" x1="767.0051" y1="840.0901" x2="1347.6851" y2="840.0901">
	<stop  offset="0" style="stop-color:#E8E8E8"/>
	<stop  offset="1" style="stop-color:#000000"/>
</linearGradient>
<line class="st66" x1="889.64" y1="840.09" x2="1205.06" y2="840.09"/>
<linearGradient id="SVGID_93_" gradientUnits="userSpaceOnUse" x1="643.669" y1="1003.4302" x2="931.7426" y2="1003.4302">
	<stop  offset="0" style="stop-color:#F6F6F6"/>
	<stop  offset="1" style="stop-color:#000000"/>
</linearGradient>
<line class="st67" x1="704.95" y1="861.84" x2="860.55" y2="1145.02"/>
<radialGradient id="SVGID_94_" cx="1681.2427" cy="1687.4214" r="23.6321" gradientTransform="matrix(5.4002 0 0 5.3876 -8203.2627 -8240.3125)" gradientUnits="userSpaceOnUse">
	<stop  offset="0" style="stop-color:#FFFFFF"/>
	<stop  offset="1" style="stop-color:#F2F9FA"/>
</radialGradient>
<linearGradient id="SVGID_95_" gradientUnits="userSpaceOnUse" x1="704.8882" y1="850.7813" x2="1058.8693" y2="850.7813">
	<stop  offset="0" style="stop-color:#E9E9E9"/>
	<stop  offset="1" style="stop-color:#1B1B1B"/>
</linearGradient>
<line class="st68" x1="971.5" y1="698.13" x2="780.07" y2="1003.43"/>
<text transform="matrix(1.0023 0 0 1 431.6279 1450.2471)" class="st69 st70 st71">T PRODUCTION</text>
<polygon class="st72" points="1406.79,1423.31 1585,1423.31 1585,1423.31 1406.79,1423.31 "/>
</svg>
